<?xml version="1.0" encoding="UTF-8" standalone="no"?>
<!DOCTYPE svg PUBLIC "-//W3C//DTD SVG 1.1//EN" "http://www.w3.org/Graphics/SVG/1.1/DTD/svg11.dtd">
<svg width="100%" height="100%" viewBox="0 0 48 48" version="1.1" xmlns="http://www.w3.org/2000/svg" xmlns:xlink="http://www.w3.org/1999/xlink" xml:space="preserve" xmlns:serif="http://www.serif.com/" style="fill-rule:evenodd;clip-rule:evenodd;stroke-linejoin:round;stroke-miterlimit:2;">
    <g transform="matrix(1.42788,0,0,1.42788,1.21871,1.46217)">
        <g>
            <path d="M19,16.5L14.714,16.5L12,23.5L14.429,23.5L13,28.5L20,21.5L16.551,21.5L19,16.5Z" style="fill:white;fill-rule:nonzero;"/>
            <path d="M27.586,11.712C26.66,9.251 24.284,7.5 21.5,7.5C20.859,7.5 20.24,7.593 19.654,7.766C18.068,5.205 15.233,3.5 12,3.5C7.096,3.5 3.106,7.424 3.002,12.303C1.207,13.342 0,15.283 0,17.5C0,20.812 2.688,23.5 6,23.5L9.8,23.5L10.6,21.5L5.997,21.5C3.794,21.5 2,19.709 2,17.5C2,15.608 3.317,14.018 5.087,13.604C5.029,13.245 5,12.876 5,12.5C5,8.634 8.134,5.5 12,5.5C15.162,5.5 17.834,7.597 18.702,10.475C19.471,9.864 20.441,9.5 21.5,9.5C23.816,9.5 25.725,11.25 25.973,13.5L26.003,13.5C28.206,13.5 30,15.291 30,17.5C30,19.705 28.211,21.5 26.003,21.5L23,21.5L21,23.5L26,23.5C29.312,23.5 32,20.807 32,17.5C32,14.735 30.13,12.407 27.586,11.712Z" style="fill:white;fill-rule:nonzero;"/>
        </g>
    </g>
</svg>
