<svg xmlns="http://www.w3.org/2000/svg" width="263.333" height="54.07" viewBox="0 0 263.333 54.07">
  <g id="LOGO" transform="translate(0 0)">
    <g id="Corriere_Espresso" data-name="Corriere Espresso" transform="translate(130.606 39.623)">
      <g id="Raggruppa_60" data-name="Raggruppa 60">
        <path id="Tracciato_113" data-name="Tracciato 113" d="M74.069,31.736a2.4,2.4,0,0,1-1.456.449,2.741,2.741,0,0,1-1.523-.4,2.5,2.5,0,0,1-.941-1.2,5.172,5.172,0,0,1-.319-1.93,4.828,4.828,0,0,1,.343-1.936,2.6,2.6,0,0,1,.971-1.19,2.664,2.664,0,0,1,1.469-.4,2.309,2.309,0,0,1,1.4.4,2.368,2.368,0,0,1,.812,1.33l1.942-.825a3.615,3.615,0,0,0-.877-1.485,3.709,3.709,0,0,0-1.456-.887,5.981,5.981,0,0,0-1.912-.285,5.15,5.15,0,0,0-2.606.636,4.267,4.267,0,0,0-1.711,1.82,6.193,6.193,0,0,0-.6,2.829,6.208,6.208,0,0,0,.6,2.831,4.274,4.274,0,0,0,1.711,1.818,5.2,5.2,0,0,0,2.636.638,5.373,5.373,0,0,0,1.914-.327,3.932,3.932,0,0,0,2.443-2.66l-1.976-.59A2.419,2.419,0,0,1,74.069,31.736Z" transform="translate(-67.607 -22.606)" fill="#2f3031"/>
        <path id="Tracciato_114" data-name="Tracciato 114" d="M78.764,25.1a4.706,4.706,0,0,0-4.143,0,3.434,3.434,0,0,0-1.408,1.384,4.917,4.917,0,0,0,0,4.347,3.429,3.429,0,0,0,1.408,1.392,4.688,4.688,0,0,0,4.143,0,3.434,3.434,0,0,0,1.4-1.392,4.917,4.917,0,0,0,0-4.347A3.439,3.439,0,0,0,78.764,25.1Zm-.457,4.929a1.706,1.706,0,0,1-.632.817,1.742,1.742,0,0,1-.987.271,1.783,1.783,0,0,1-1-.271,1.688,1.688,0,0,1-.628-.817,4.381,4.381,0,0,1,0-2.738,1.7,1.7,0,0,1,.628-.816,1.783,1.783,0,0,1,1-.273,1.743,1.743,0,0,1,.987.273,1.719,1.719,0,0,1,.632.816,4.419,4.419,0,0,1,0,2.738Z" transform="translate(-62.538 -21.366)" fill="#2f3031"/>
        <path id="Tracciato_115" data-name="Tracciato 115" d="M81.845,24.618a2.489,2.489,0,0,0-1.5.433,2.676,2.676,0,0,0-.911,1.244l-.14-1.523H77.442v7.776h2.131V28.52a2.2,2.2,0,0,1,.279-1.158,1.787,1.787,0,0,1,.718-.684,1.943,1.943,0,0,1,.9-.227,4.2,4.2,0,0,1,.582.032,1.66,1.66,0,0,1,.381.094l.249-1.789a1.3,1.3,0,0,0-.357-.126A2.424,2.424,0,0,0,81.845,24.618Z" transform="translate(-57.832 -21.366)" fill="#2f3031"/>
        <path id="Tracciato_116" data-name="Tracciato 116" d="M84.979,24.618a2.489,2.489,0,0,0-1.5.433,2.7,2.7,0,0,0-.911,1.244l-.138-1.523H80.578v7.776h2.131V28.52a2.182,2.182,0,0,1,.279-1.158,1.787,1.787,0,0,1,.718-.684,1.937,1.937,0,0,1,.9-.227,4.2,4.2,0,0,1,.582.032,1.687,1.687,0,0,1,.381.094l.249-1.789a1.314,1.314,0,0,0-.359-.126A2.4,2.4,0,0,0,84.979,24.618Z" transform="translate(-54.715 -21.366)" fill="#2f3031"/>
        <rect id="Rettangolo_23" data-name="Rettangolo 23" width="2.13" height="7.777" transform="translate(32.115 3.405)" fill="#2f3031"/>
        <path id="Tracciato_117" data-name="Tracciato 117" d="M84.911,22.987a1.471,1.471,0,0,0-.995.287,1.092,1.092,0,0,0-.327.863,1.078,1.078,0,0,0,.327.849,1.879,1.879,0,0,0,1.99,0,1.078,1.078,0,0,0,.327-.849,1.092,1.092,0,0,0-.327-.863A1.467,1.467,0,0,0,84.911,22.987Z" transform="translate(-51.723 -22.987)" fill="#2f3031"/>
        <path id="Tracciato_118" data-name="Tracciato 118" d="M91.482,25.091a3.989,3.989,0,0,0-2.008-.473,4.246,4.246,0,0,0-2.046.481,3.408,3.408,0,0,0-1.392,1.384,5,5,0,0,0,0,4.355,3.387,3.387,0,0,0,1.408,1.384,4.5,4.5,0,0,0,2.137.483,4.8,4.8,0,0,0,1.487-.225,3.453,3.453,0,0,0,1.2-.66,2.715,2.715,0,0,0,.754-1.045l-1.693-.652a1.785,1.785,0,0,1-.656.732,2.362,2.362,0,0,1-2.167,0,1.694,1.694,0,0,1-.684-.8,2.725,2.725,0,0,1-.191-.722h5.485a4.7,4.7,0,0,0,.046-.5c.01-.187.016-.385.016-.59a3.888,3.888,0,0,0-.435-1.86A3.234,3.234,0,0,0,91.482,25.091Zm-3.043,1.376a1.831,1.831,0,0,1,1.019-.279,1.549,1.549,0,0,1,1.252.528,2.112,2.112,0,0,1,.4,1.137H87.65A2.992,2.992,0,0,1,87.8,27.3,1.713,1.713,0,0,1,88.439,26.466Z" transform="translate(-49.786 -21.366)" fill="#2f3031"/>
        <path id="Tracciato_119" data-name="Tracciato 119" d="M94.518,24.618a2.5,2.5,0,0,0-1.5.433,2.7,2.7,0,0,0-.911,1.244l-.138-1.523H90.117v7.776h2.131V28.52a2.2,2.2,0,0,1,.279-1.158,1.787,1.787,0,0,1,.718-.684,1.943,1.943,0,0,1,.9-.227,4.2,4.2,0,0,1,.582.032,1.687,1.687,0,0,1,.381.094l.249-1.789A1.314,1.314,0,0,0,95,24.662,2.4,2.4,0,0,0,94.518,24.618Z" transform="translate(-45.235 -21.366)" fill="#2f3031"/>
        <path id="Tracciato_120" data-name="Tracciato 120" d="M98.9,25.091a3.989,3.989,0,0,0-2.008-.473,4.246,4.246,0,0,0-2.046.481,3.408,3.408,0,0,0-1.392,1.384,5,5,0,0,0,0,4.355,3.387,3.387,0,0,0,1.408,1.384A4.5,4.5,0,0,0,97,32.7a4.8,4.8,0,0,0,1.487-.225,3.453,3.453,0,0,0,1.2-.66,2.715,2.715,0,0,0,.754-1.045l-1.695-.652a1.767,1.767,0,0,1-.654.732,2.366,2.366,0,0,1-2.169,0,1.7,1.7,0,0,1-.682-.8,2.725,2.725,0,0,1-.191-.722h5.485a4.7,4.7,0,0,0,.046-.5c.01-.187.016-.385.016-.59a3.888,3.888,0,0,0-.435-1.86A3.234,3.234,0,0,0,98.9,25.091Zm-3.043,1.376a1.831,1.831,0,0,1,1.019-.279,1.551,1.551,0,0,1,1.252.528,2.128,2.128,0,0,1,.4,1.137H95.068a2.992,2.992,0,0,1,.146-.554A1.713,1.713,0,0,1,95.857,26.466Z" transform="translate(-42.413 -21.366)" fill="#2f3031"/>
        <path id="Tracciato_121" data-name="Tracciato 121" d="M102.021,29.374h4.371V27.725h-4.371V25.174h5.553V23.447h-7.7V33.712h7.915V31.985h-5.769Z" transform="translate(-35.536 -22.53)" fill="#2f3031"/>
        <path id="Tracciato_122" data-name="Tracciato 122" d="M109.274,28.008l-1.585-.327a1.98,1.98,0,0,1-.8-.305.536.536,0,0,1-.215-.427.572.572,0,0,1,.154-.413,1.063,1.063,0,0,1,.469-.255,2.553,2.553,0,0,1,.746-.094,2.492,2.492,0,0,1,1.16.287,2.335,2.335,0,0,1,.893.831l1.276-1.244a3.09,3.09,0,0,0-1.362-1.081,5.191,5.191,0,0,0-2.03-.363,4.549,4.549,0,0,0-1.9.347,2.722,2.722,0,0,0-1.143.909,2.089,2.089,0,0,0-.381,1.2,1.974,1.974,0,0,0,.568,1.468,3.767,3.767,0,0,0,1.92.849l1.368.279a1.409,1.409,0,0,1,.686.287.61.61,0,0,1,.169.429.591.591,0,0,1-.365.566,2.193,2.193,0,0,1-.971.179,2.868,2.868,0,0,1-2.472-1.276l-1.23,1.246a4.006,4.006,0,0,0,1.577,1.18,5.373,5.373,0,0,0,2.157.421,4.7,4.7,0,0,0,1.888-.335,2.6,2.6,0,0,0,1.166-.917,2.3,2.3,0,0,0,.4-1.33,1.926,1.926,0,0,0-.5-1.33A2.964,2.964,0,0,0,109.274,28.008Z" transform="translate(-31.203 -21.366)" fill="#2f3031"/>
        <path id="Tracciato_123" data-name="Tracciato 123" d="M114.832,25.1a3.06,3.06,0,0,0-1.695-.481,2.841,2.841,0,0,0-1.322.3,2.713,2.713,0,0,0-.973.833,3.078,3.078,0,0,0-.309.548l-.086-1.529h-1.914V35.814h2.131v-4.68a2.887,2.887,0,0,0,.724.993,2.529,2.529,0,0,0,1.7.576,3.129,3.129,0,0,0,1.721-.483A3.276,3.276,0,0,0,116,30.829a5.695,5.695,0,0,0,.008-4.355A3.274,3.274,0,0,0,114.832,25.1Zm-1.017,5.358a1.761,1.761,0,0,1-2.3.325,1.773,1.773,0,0,1-.63-.839,3.5,3.5,0,0,1-.217-1.282,3.242,3.242,0,0,1,.233-1.3,1.9,1.9,0,0,1,.646-.825,1.63,1.63,0,0,1,.957-.287,1.581,1.581,0,0,1,1.33.616,2.9,2.9,0,0,1,.473,1.794A2.845,2.845,0,0,1,113.815,30.456Z" transform="translate(-26.931 -21.366)" fill="#2f3031"/>
        <path id="Tracciato_124" data-name="Tracciato 124" d="M117.669,24.618a2.489,2.489,0,0,0-1.5.433,2.69,2.69,0,0,0-.911,1.244l-.14-1.523h-1.85v7.776H115.4V28.52a2.182,2.182,0,0,1,.281-1.158,1.782,1.782,0,0,1,.716-.684,1.949,1.949,0,0,1,.9-.227,4.2,4.2,0,0,1,.582.032,1.706,1.706,0,0,1,.383.094l.249-1.789a1.339,1.339,0,0,0-.359-.126A2.4,2.4,0,0,0,117.669,24.618Z" transform="translate(-22.225 -21.366)" fill="#2f3031"/>
        <path id="Tracciato_125" data-name="Tracciato 125" d="M122.049,25.091a3.978,3.978,0,0,0-2.008-.473A4.238,4.238,0,0,0,118,25.1a3.4,3.4,0,0,0-1.392,1.384,5,5,0,0,0,0,4.355,3.376,3.376,0,0,0,1.408,1.384,4.5,4.5,0,0,0,2.137.483,4.789,4.789,0,0,0,1.485-.225,3.462,3.462,0,0,0,1.2-.66,2.71,2.71,0,0,0,.752-1.045l-1.693-.652a1.781,1.781,0,0,1-.654.732,2.366,2.366,0,0,1-2.169,0,1.694,1.694,0,0,1-.684-.8,2.652,2.652,0,0,1-.189-.722h5.483c.022-.146.038-.311.048-.5s.016-.385.016-.59a3.911,3.911,0,0,0-.435-1.86A3.252,3.252,0,0,0,122.049,25.091Zm-3.041,1.376a1.82,1.82,0,0,1,1.017-.279,1.546,1.546,0,0,1,1.252.528,2.1,2.1,0,0,1,.4,1.137h-3.455a2.994,2.994,0,0,1,.144-.554A1.716,1.716,0,0,1,119.008,26.466Z" transform="translate(-19.403 -21.366)" fill="#2f3031"/>
        <path id="Tracciato_126" data-name="Tracciato 126" d="M125.411,28.008l-1.583-.327a1.955,1.955,0,0,1-.8-.305.536.536,0,0,1-.215-.427.572.572,0,0,1,.154-.413,1.066,1.066,0,0,1,.467-.255,2.571,2.571,0,0,1,.746-.094,2.486,2.486,0,0,1,1.16.287,2.34,2.34,0,0,1,.9.831l1.274-1.244a3.084,3.084,0,0,0-1.36-1.081,5.191,5.191,0,0,0-2.03-.363,4.549,4.549,0,0,0-1.9.347,2.722,2.722,0,0,0-1.143.909,2.092,2.092,0,0,0-.383,1.2,1.982,1.982,0,0,0,.568,1.468,3.784,3.784,0,0,0,1.92.849l1.37.279a1.409,1.409,0,0,1,.686.287.608.608,0,0,1,.167.429.589.589,0,0,1-.363.566,2.193,2.193,0,0,1-.971.179,2.868,2.868,0,0,1-2.474-1.276L120.374,31.1a3.992,3.992,0,0,0,1.577,1.18,5.364,5.364,0,0,0,2.155.421,4.692,4.692,0,0,0,1.888-.335,2.593,2.593,0,0,0,1.166-.917,2.3,2.3,0,0,0,.4-1.33,1.926,1.926,0,0,0-.5-1.33A2.971,2.971,0,0,0,125.411,28.008Z" transform="translate(-15.162 -21.366)" fill="#2f3031"/>
        <path id="Tracciato_127" data-name="Tracciato 127" d="M129.4,28.008l-1.585-.327a1.981,1.981,0,0,1-.8-.305.536.536,0,0,1-.215-.427.572.572,0,0,1,.154-.413,1.063,1.063,0,0,1,.469-.255,2.553,2.553,0,0,1,.746-.094,2.492,2.492,0,0,1,1.16.287,2.335,2.335,0,0,1,.893.831l1.276-1.244a3.09,3.09,0,0,0-1.362-1.081,5.191,5.191,0,0,0-2.03-.363,4.549,4.549,0,0,0-1.9.347,2.722,2.722,0,0,0-1.143.909,2.089,2.089,0,0,0-.381,1.2,1.974,1.974,0,0,0,.568,1.468,3.768,3.768,0,0,0,1.92.849l1.368.279a1.409,1.409,0,0,1,.686.287.6.6,0,0,1,.169.429.591.591,0,0,1-.365.566,2.193,2.193,0,0,1-.971.179,2.868,2.868,0,0,1-2.472-1.276l-1.23,1.246a4.006,4.006,0,0,0,1.577,1.18,5.373,5.373,0,0,0,2.157.421,4.7,4.7,0,0,0,1.888-.335,2.6,2.6,0,0,0,1.166-.917,2.3,2.3,0,0,0,.4-1.33,1.927,1.927,0,0,0-.5-1.33A2.964,2.964,0,0,0,129.4,28.008Z" transform="translate(-11.202 -21.366)" fill="#2f3031"/>
        <path id="Tracciato_128" data-name="Tracciato 128" d="M135.88,26.482a3.438,3.438,0,0,0-1.4-1.384,4.706,4.706,0,0,0-4.143,0,3.434,3.434,0,0,0-1.408,1.384,4.917,4.917,0,0,0,0,4.347,3.429,3.429,0,0,0,1.408,1.392,4.688,4.688,0,0,0,4.143,0,3.433,3.433,0,0,0,1.4-1.392,4.916,4.916,0,0,0,0-4.347Zm-1.856,3.545a1.706,1.706,0,0,1-.632.817,1.751,1.751,0,0,1-.987.271,1.782,1.782,0,0,1-1-.271,1.676,1.676,0,0,1-.628-.817,4.381,4.381,0,0,1,0-2.738,1.689,1.689,0,0,1,.628-.816,1.783,1.783,0,0,1,1-.273,1.752,1.752,0,0,1,.987.273,1.719,1.719,0,0,1,.632.816,4.419,4.419,0,0,1,0,2.738Z" transform="translate(-7.163 -21.366)" fill="#2f3031"/>
      </g>
    </g>
    <g id="YOUship.it">
      <g id="Raggruppa_62" data-name="Raggruppa 62">
        <g id="Raggruppa_61" data-name="Raggruppa 61" transform="translate(41.732 0.317)">
          <rect id="Rettangolo_24" data-name="Rettangolo 24" width="12.999" height="25.721" transform="translate(45.622 4.483)" fill="none"/>
          <path id="Tracciato_129" data-name="Tracciato 129" d="M39.448,16.442,33.1,3.86a1.069,1.069,0,0,0-.953-.586H23.054c-.028.12-.028.183,0,.2l8.342,14.5q.162.287,2.309,3.591a20.628,20.628,0,0,1,1.789,3.463,1.1,1.1,0,0,1,.074.411V36.893a1.067,1.067,0,0,0,1.069,1.067h7.421a1.065,1.065,0,0,0,1.067-1.067V25.48a1.133,1.133,0,0,1,.124-.5A63.1,63.1,0,0,1,49.262,18a.79.79,0,0,0,.044-.068l8.336-14.46v-.2H48.556a1.066,1.066,0,0,0-.955.592L41.358,16.436A1.068,1.068,0,0,1,39.448,16.442Z" transform="translate(-23.034 -3.274)" fill="#eb6d42"/>
          <path id="Tracciato_130" data-name="Tracciato 130" d="M68.067,3.274H46.192q-5,.024-5.021,2.748V35.212q.021,2.731,5.021,2.748H68.067q5-.018,5.021-2.748V6.022Q73.063,3.3,68.067,3.274Zm-5.633,30.2H51.824a1.194,1.194,0,0,1-1.194-1.194V8.953a1.2,1.2,0,0,1,1.194-1.2H62.434a1.2,1.2,0,0,1,1.194,1.2v23.33A1.194,1.194,0,0,1,62.434,33.477Z" transform="translate(-5.007 -3.274)" fill="#eb6d42"/>
          <path id="Tracciato_131" data-name="Tracciato 131" d="M80.758,33.477h-11.1a.851.851,0,0,1-.851-.849V4.123a.85.85,0,0,0-.849-.849H60.2a.851.851,0,0,0-.851.849V35.212q.024,2.731,5.025,2.748H86.048q4.995-.018,5.023-2.748V4.123a.851.851,0,0,0-.851-.849h-7.76a.85.85,0,0,0-.849.849v28.5A.851.851,0,0,1,80.758,33.477Z" transform="translate(13.063 -3.274)" fill="#eb6d42"/>
        </g>
        <path id="Tracciato_132" data-name="Tracciato 132" d="M35.643,19.846,24.294,5.536a.989.989,0,0,1,.718-1.6c2.151-.108,4.319-.177,6.454-.2a2.629,2.629,0,0,1,2.09,1c2.5,3.15,10.107,12.737,12.26,15.455a1.219,1.219,0,0,1,0,1.509c-2.2,2.764-9.455,11.909-12.133,15.281a2.583,2.583,0,0,1-2.084.985c-1.6-.032-4.377-.1-6.446-.183a.988.988,0,0,1-.726-1.605c3.063-3.858,8.982-11.313,11.212-14.123A1.777,1.777,0,0,0,35.643,19.846Zm-22.673,17c1.529.156,3.12.305,4.749.443a1.684,1.684,0,0,0,1.46-.626l11.6-14.609a1.774,1.774,0,0,0,0-2.205C28.252,16.661,21.132,7.687,19.054,5.069A1.683,1.683,0,0,0,17.6,4.441c-1.635.138-3.232.287-4.765.445a.992.992,0,0,0-.664,1.609c2.917,3.679,8.458,10.663,10.6,13.357a1.759,1.759,0,0,1,.006,2.187c-2.1,2.646-7.515,9.467-10.466,13.186A1,1,0,0,0,12.971,36.844ZM2.954,35.633c.891.122,1.856.251,2.885.383A1.689,1.689,0,0,0,7.38,35.4c2.441-3.073,8.354-10.522,10.689-13.465a1.748,1.748,0,0,0,0-2.183L7.412,6.311A1.684,1.684,0,0,0,5.873,5.7c-1.031.132-2,.261-2.889.385a.985.985,0,0,0-.63,1.6L11.2,18.823c1.236,1.559,1.236,2.474.722,3.124C10,24.366,5.35,30.22,2.324,34.032A.989.989,0,0,0,2.954,35.633ZM164.53,24.781l-5.886-1.224a4.411,4.411,0,0,1-2.638-1.248,2.983,2.983,0,0,1-.07-3.768,4.192,4.192,0,0,1,1.836-1.3,7.968,7.968,0,0,1,2.9-.471,7.755,7.755,0,0,1,3.721.965,5.451,5.451,0,0,1,2.325,2.437.562.562,0,0,0,.812.243l2.177-1.43a.58.58,0,0,0,.2-.75,8.523,8.523,0,0,0-3.344-3.4,11.77,11.77,0,0,0-5.888-1.366,11.211,11.211,0,0,0-4.827.967,7.74,7.74,0,0,0-3.156,2.566,6.084,6.084,0,0,0-1.109,3.533,5.9,5.9,0,0,0,1.485,4.1,8.885,8.885,0,0,0,4.921,2.353l5.653,1.178a4.033,4.033,0,0,1,2.427,1.2,2.937,2.937,0,0,1-.778,4.333,6.855,6.855,0,0,1-3.91.967,9.087,9.087,0,0,1-4.827-1.224,7.8,7.8,0,0,1-2.742-2.827.558.558,0,0,0-.814-.193l-2.249,1.621a.577.577,0,0,0-.154.776,10.453,10.453,0,0,0,4.167,3.685,13.878,13.878,0,0,0,6.337,1.46,12.5,12.5,0,0,0,4.9-.9,7.465,7.465,0,0,0,3.3-2.566,6.57,6.57,0,0,0,1.176-3.886,5.392,5.392,0,0,0-1.318-3.673A8.144,8.144,0,0,0,164.53,24.781Zm24.73-10.338a10.8,10.8,0,0,0-4.616-.967,10.357,10.357,0,0,0-4.426.943,7.253,7.253,0,0,0-3.25,3.061V3.675a.561.561,0,0,0-.562-.56h-2.644a.561.561,0,0,0-.562.56v33.26a.562.562,0,0,0,.562.562h2.644a.562.562,0,0,0,.562-.562V25.016a9.2,9.2,0,0,1,1.1-4.827,6.584,6.584,0,0,1,2.8-2.614,7.884,7.884,0,0,1,3.392-.8,5.879,5.879,0,0,1,4.121,1.531q1.672,1.531,1.671,5.439V36.935a.562.562,0,0,0,.562.562h2.644a.562.562,0,0,0,.562-.562V22.426a9.282,9.282,0,0,0-1.248-5.041A7.709,7.709,0,0,0,189.261,14.442ZM198.676,37.5h2.644a.562.562,0,0,0,.562-.562V14.508a.561.561,0,0,0-.562-.56h-2.644a.561.561,0,0,0-.562.56V36.935A.562.562,0,0,0,198.676,37.5ZM200,3.115a2.779,2.779,0,0,0-2.05.776,2.771,2.771,0,0,0-.776,2.05,2.763,2.763,0,0,0,.776,2.048,3.088,3.088,0,0,0,4.1,0,2.766,2.766,0,0,0,.78-2.048,2.773,2.773,0,0,0-.78-2.05A2.774,2.774,0,0,0,200,3.115Zm23.384,11.822a10.09,10.09,0,0,0-5.3-1.462,9.952,9.952,0,0,0-3.77.708,8.674,8.674,0,0,0-2.967,1.954,8.087,8.087,0,0,0-1.406,2.026l-.211-3.687a.561.561,0,0,0-.56-.528h-2.205a.562.562,0,0,0-.562.56V42.789a.563.563,0,0,0,.562.562h2.646a.561.561,0,0,0,.56-.562v-9a8.365,8.365,0,0,0,2.66,2.74,9.1,9.1,0,0,0,5.112,1.438,10.3,10.3,0,0,0,5.37-1.46,10.676,10.676,0,0,0,3.932-4.217,13.662,13.662,0,0,0,1.483-6.57,13.8,13.8,0,0,0-1.462-6.594A10.573,10.573,0,0,0,223.382,14.937Zm-.377,17.285a6.573,6.573,0,0,1-5.441,2.45,6.874,6.874,0,0,1-3.884-1.109,7.223,7.223,0,0,1-2.592-3.13,11.319,11.319,0,0,1-.917-4.712,10.992,10.992,0,0,1,.943-4.733,7.354,7.354,0,0,1,2.636-3.108,7.078,7.078,0,0,1,3.956-1.107,6.4,6.4,0,0,1,5.348,2.448,10.294,10.294,0,0,1,1.906,6.5A10.122,10.122,0,0,1,223.005,32.222Zm9.634-.377a2.911,2.911,0,1,0,2.213.849A2.991,2.991,0,0,0,232.64,31.845Zm8.289-28.73a2.771,2.771,0,0,0-2.048.776,2.772,2.772,0,0,0-.778,2.05,2.828,2.828,0,1,0,5.653,0,2.773,2.773,0,0,0-.78-2.05A2.768,2.768,0,0,0,240.928,3.115ZM239.606,37.5h2.646a.561.561,0,0,0,.56-.562V14.508a.561.561,0,0,0-.56-.56h-2.646a.561.561,0,0,0-.56.56V36.935A.561.561,0,0,0,239.606,37.5Zm20.964-4.8a6.491,6.491,0,0,1-1.79,1.27,5.425,5.425,0,0,1-2.357.473,3.766,3.766,0,0,1-2.542-.849,3.221,3.221,0,0,1-.989-2.59V17.758a.561.561,0,0,1,.56-.56H260.9a.562.562,0,0,0,.562-.562V14.508a.561.561,0,0,0-.562-.56h-7.449a.561.561,0,0,1-.56-.562V8a.562.562,0,0,0-.71-.542l-2.646.728a.561.561,0,0,0-.413.54v4.664a.561.561,0,0,1-.56.562h-3.587a.561.561,0,0,0-.562.56v2.127a.562.562,0,0,0,.562.562h3.587a.561.561,0,0,1,.56.56v13.9a6.762,6.762,0,0,0,.967,3.649,5.269,5.269,0,0,0,2.472,2.026,8.72,8.72,0,0,0,3.344.636,9.613,9.613,0,0,0,3.416-.564,8.088,8.088,0,0,0,2.245-1.28.576.576,0,0,0,.158-.666Zm4.087-28.8a3.091,3.091,0,0,0-4.1,0,2.772,2.772,0,0,0-.778,2.05,2.828,2.828,0,1,0,5.653,0A2.774,2.774,0,0,0,264.657,3.891Zm-.4,3.7a2.536,2.536,0,0,1-3.3,0,2.211,2.211,0,0,1-.61-1.649,2.211,2.211,0,0,1,.61-1.649,2.53,2.53,0,0,1,3.3,0,2.207,2.207,0,0,1,.612,1.649A2.207,2.207,0,0,1,264.259,7.589Zm-.213-.227-.744-1.15a.925.925,0,0,0,.3-.156.8.8,0,0,0,.279-.664.8.8,0,0,0-.281-.636,1.192,1.192,0,0,0-.792-.239h-1.358V7.362h.728V6.323h.445l.608,1.039Zm-1.872-2.285h.526a.507.507,0,0,1,.323.088.325.325,0,0,1,.11.271.333.333,0,0,1-.11.275.508.508,0,0,1-.323.086h-.526Z" transform="translate(-2.104 -3.115)" fill="#2f3031"/>
      </g>
    </g>
  </g>
</svg>
