<?xml version="1.0" encoding="UTF-8" standalone="no"?>
<!DOCTYPE svg PUBLIC "-//W3C//DTD SVG 1.1//EN" "http://www.w3.org/Graphics/SVG/1.1/DTD/svg11.dtd">
<svg width="100%" height="100%" viewBox="0 0 48 48" version="1.1" xmlns="http://www.w3.org/2000/svg" xmlns:xlink="http://www.w3.org/1999/xlink" xml:space="preserve" xmlns:serif="http://www.serif.com/" style="fill-rule:evenodd;clip-rule:evenodd;stroke-linejoin:round;stroke-miterlimit:2;">
    <rect x="0" y="0" width="48" height="48" style="fill:none;"/>
    <g transform="matrix(0.917868,0,0,0.917868,2.26333,3.27312)">
        <path d="M42,13.2C38.688,13.2 36,15.888 36,19.2C36,19.392 36,19.56 36.024,19.728L32.208,20.88C30.96,18.12 28.344,16.08 25.2,15.672L25.2,11.88C27.936,11.328 30,8.904 30,6C30,2.688 27.312,0 24,0C20.688,0 18,2.688 18,6C18,8.904 20.064,11.328 22.8,11.88L22.8,15.672C19.68,16.104 17.064,18.12 15.792,20.88L11.976,19.728C12,19.56 12,19.392 12,19.2C12,15.888 9.312,13.2 6,13.2C2.688,13.2 0,15.888 0,19.2C0,22.512 2.688,25.2 6,25.2C8.28,25.2 10.272,23.928 11.28,22.032L15.12,23.184C14.688,25.872 15.48,28.704 17.496,30.816L14.736,34.248C13.92,33.84 12.984,33.6 12,33.6C8.688,33.6 6,36.288 6,39.6C6,42.912 8.688,45.6 12,45.6C15.312,45.6 18,42.912 18,39.6C18,38.136 17.472,36.792 16.608,35.76L19.368,32.328C22.2,34.032 25.8,34.032 28.632,32.328L31.392,35.76C30.528,36.792 30,38.136 30,39.6C30,42.912 32.688,45.6 36,45.6C39.312,45.6 42,42.912 42,39.6C42,36.288 39.312,33.6 36,33.6C35.016,33.6 34.08,33.84 33.264,34.248L30.504,30.816C32.52,28.704 33.312,25.872 32.88,23.184L36.696,22.032C37.704,23.904 39.696,25.2 41.976,25.2C45.288,25.2 47.976,22.512 47.976,19.2C48,15.888 45.312,13.2 42,13.2ZM6,21.6C4.68,21.6 3.6,20.52 3.6,19.2C3.6,17.88 4.68,16.8 6,16.8C7.32,16.8 8.4,17.88 8.4,19.2C8.4,20.52 7.32,21.6 6,21.6ZM12,42C10.68,42 9.6,40.92 9.6,39.6C9.6,38.28 10.68,37.2 12,37.2C13.32,37.2 14.4,38.28 14.4,39.6C14.4,40.92 13.32,42 12,42ZM21.6,6C21.6,4.68 22.68,3.6 24,3.6C25.32,3.6 26.4,4.68 26.4,6C26.4,7.32 25.32,8.4 24,8.4C22.68,8.4 21.6,7.32 21.6,6ZM24,30C21.024,30 18.6,27.576 18.6,24.6C18.6,21.624 21.024,19.2 24,19.2C26.976,19.2 29.4,21.624 29.4,24.6C29.4,27.576 26.976,30 24,30ZM36,37.2C37.32,37.2 38.4,38.28 38.4,39.6C38.4,40.92 37.32,42 36,42C34.68,42 33.6,40.92 33.6,39.6C33.6,38.28 34.68,37.2 36,37.2ZM42,21.6C40.68,21.6 39.6,20.52 39.6,19.2C39.6,17.88 40.68,16.8 42,16.8C43.32,16.8 44.4,17.88 44.4,19.2C44.4,20.52 43.32,21.6 42,21.6Z" style="fill:white;fill-rule:nonzero;"/>
    </g>
</svg>
